<svg width="368" height="33" viewBox="0 0 368 33" fill="none" xmlns="http://www.w3.org/2000/svg">
<path d="M51.8008 26H49.4521V9.49609H43.6504V7.43945H57.5645V9.49609H51.8008V26ZM65.4234 11.8066C66.0412 11.8066 66.5871 11.8574 67.0611 11.959L66.7818 14.0664C66.2655 13.9479 65.7619 13.8887 65.271 13.8887C64.5347 13.8887 63.8491 14.0918 63.2144 14.498C62.5881 14.9043 62.0972 15.4671 61.7417 16.1865C61.3862 16.8975 61.2085 17.6888 61.2085 18.5605V26H58.9234V12.0605H60.8023L61.0562 14.6123H61.1577C61.6909 13.6898 62.3215 12.9915 63.0493 12.5176C63.7772 12.0436 64.5685 11.8066 65.4234 11.8066ZM71.3018 12.0605V21.0361C71.3018 22.1618 71.5515 22.9997 72.0508 23.5498C72.5586 24.0915 73.3415 24.3623 74.3995 24.3623C75.8298 24.3623 76.8708 23.9645 77.5225 23.1689C78.1742 22.3734 78.5 21.0911 78.5 19.3223V12.0605H80.7979V26H78.919L78.5889 24.1592H78.4746C78.0599 24.8278 77.4717 25.3441 76.71 25.708C75.9483 26.0719 75.0638 26.2539 74.0567 26.2539C72.3809 26.2539 71.1156 25.8519 70.2608 25.0479C69.4144 24.2438 68.9912 22.9574 68.9912 21.1885V12.0605H71.3018ZM93.773 22.1533C93.773 23.4567 93.2864 24.4681 92.313 25.1875C91.3397 25.8984 89.9729 26.2539 88.2125 26.2539C86.3759 26.2539 84.9159 25.9619 83.8326 25.3779V23.2959C85.3645 24.0407 86.8414 24.4131 88.2632 24.4131C89.4143 24.4131 90.2522 24.2269 90.7769 23.8545C91.3017 23.4821 91.564 22.9827 91.564 22.3564C91.564 21.8063 91.3101 21.3408 90.8023 20.96C90.303 20.5791 89.4101 20.1432 88.1236 19.6523C86.8117 19.1445 85.8892 18.7129 85.356 18.3574C84.8228 17.9935 84.4293 17.5872 84.1754 17.1387C83.9299 16.6901 83.8072 16.1442 83.8072 15.501C83.8072 14.3584 84.2727 13.457 85.2037 12.7969C86.1347 12.1367 87.4127 11.8066 89.0377 11.8066C90.6203 11.8066 92.1015 12.1198 93.481 12.7461L92.7066 14.5615C91.2932 13.9691 90.0194 13.6729 88.8853 13.6729C87.9374 13.6729 87.218 13.8252 86.7271 14.1299C86.2362 14.4261 85.9908 14.8366 85.9908 15.3613C85.9908 15.8691 86.2024 16.2923 86.6255 16.6309C87.0487 16.9609 88.0347 17.4222 89.5836 18.0146C90.7431 18.4463 91.5979 18.8483 92.148 19.2207C92.7066 19.5931 93.1171 20.012 93.3795 20.4775C93.6418 20.943 93.773 21.5016 93.773 22.1533ZM101.302 24.3877C101.598 24.3877 101.945 24.3581 102.343 24.2988C102.741 24.2396 103.041 24.1719 103.244 24.0957V25.8477C103.033 25.9408 102.703 26.0296 102.254 26.1143C101.814 26.2074 101.365 26.2539 100.908 26.2539C98.183 26.2539 96.8204 24.8193 96.8204 21.9502V13.8379H94.8526V12.7461L96.8458 11.832L97.7598 8.86133H99.1182V12.0605H103.143V13.8379H99.1182V21.8867C99.1182 22.6908 99.3087 23.3086 99.6895 23.7402C100.079 24.1719 100.616 24.3877 101.302 24.3877ZM112.119 26.2539C110.248 26.2539 108.81 25.5811 107.802 24.2354H107.65L107.701 24.7559C107.768 25.416 107.802 26.0042 107.802 26.5205V32.2461H105.517V12.0605H107.396L107.701 13.9648H107.802C108.344 13.2031 108.97 12.653 109.681 12.3145C110.392 11.9759 111.213 11.8066 112.144 11.8066C113.955 11.8066 115.36 12.4372 116.359 13.6982C117.366 14.9508 117.87 16.7197 117.87 19.0049C117.87 21.2816 117.366 23.0589 116.359 24.3369C115.352 25.6149 113.938 26.2539 112.119 26.2539ZM111.738 13.7236C110.358 13.7236 109.36 14.113 108.742 14.8916C108.132 15.6702 107.819 16.8932 107.802 18.5605V19.0049C107.802 20.8923 108.115 22.2591 108.742 23.1055C109.368 23.9434 110.384 24.3623 111.789 24.3623C112.957 24.3623 113.866 23.8883 114.518 22.9404C115.178 21.9925 115.508 20.6722 115.508 18.9795C115.508 17.2783 115.178 15.9792 114.518 15.082C113.866 14.1764 112.94 13.7236 111.738 13.7236ZM123.278 26H120.993V12.0605H123.278V26ZM120.816 8.29004C120.816 7.78223 120.942 7.41406 121.196 7.18555C121.459 6.95703 121.78 6.84277 122.161 6.84277C122.517 6.84277 122.826 6.95703 123.088 7.18555C123.359 7.41406 123.494 7.78223 123.494 8.29004C123.494 8.78939 123.359 9.15755 123.088 9.39453C122.826 9.63151 122.517 9.75 122.161 9.75C121.78 9.75 121.459 9.63151 121.196 9.39453C120.942 9.15755 120.816 8.78939 120.816 8.29004ZM129.462 26H127.176V6.24609H129.462V26ZM145.471 19.0049C145.471 21.2816 144.895 23.0589 143.744 24.3369C142.593 25.6149 141.002 26.2539 138.971 26.2539C137.71 26.2539 136.593 25.9619 135.619 25.3779C134.646 24.7855 133.897 23.9391 133.372 22.8389C132.847 21.7386 132.585 20.4606 132.585 19.0049C132.585 16.7367 133.152 14.972 134.286 13.7109C135.42 12.4414 137.012 11.8066 139.06 11.8066C141.023 11.8066 142.581 12.4541 143.732 13.749C144.891 15.0355 145.471 16.7874 145.471 19.0049ZM134.946 19.0049C134.946 20.7568 135.289 22.0898 135.975 23.0039C136.669 23.9095 137.689 24.3623 139.034 24.3623C140.363 24.3623 141.375 23.9095 142.069 23.0039C142.763 22.0898 143.11 20.7568 143.11 19.0049C143.11 17.2529 142.758 15.9368 142.056 15.0566C141.362 14.168 140.342 13.7236 138.996 13.7236C136.296 13.7236 134.946 15.484 134.946 19.0049ZM153.241 24.3877C153.537 24.3877 153.884 24.3581 154.282 24.2988C154.68 24.2396 154.98 24.1719 155.183 24.0957V25.8477C154.972 25.9408 154.642 26.0296 154.193 26.1143C153.753 26.2074 153.304 26.2539 152.847 26.2539C150.122 26.2539 148.759 24.8193 148.759 21.9502V13.8379H146.792V12.7461L148.785 11.832L149.699 8.86133H151.057V12.0605H155.082V13.8379H151.057V21.8867C151.057 22.6908 151.248 23.3086 151.629 23.7402C152.018 24.1719 152.555 24.3877 153.241 24.3877Z" fill="white"/>
<path d="M344.621 21.788H341.917V26H339.707V21.788H330.815V19.838L339.551 7.332H341.917V19.734H344.621V21.788ZM339.707 13.884C339.707 12.9827 339.724 12.22 339.759 11.596C339.793 10.9547 339.819 10.348 339.837 9.776H339.733C339.594 10.1053 339.421 10.4607 339.213 10.842C339.005 11.2233 338.805 11.544 338.615 11.804L333.051 19.734H339.707V13.884ZM346.499 24.596C346.499 23.9547 346.655 23.504 346.967 23.244C347.279 22.984 347.652 22.854 348.085 22.854C348.536 22.854 348.917 22.984 349.229 23.244C349.559 23.504 349.723 23.9547 349.723 24.596C349.723 25.22 349.559 25.6707 349.229 25.948C348.917 26.2253 348.536 26.364 348.085 26.364C347.652 26.364 347.279 26.2253 346.967 25.948C346.655 25.6707 346.499 25.22 346.499 24.596ZM364.584 15.366C364.584 16.7007 364.463 18.018 364.22 19.318C363.995 20.6007 363.57 21.7707 362.946 22.828C362.34 23.868 361.473 24.7 360.346 25.324C359.237 25.948 357.807 26.26 356.056 26.26C355.71 26.26 355.302 26.234 354.834 26.182C354.384 26.1473 354.011 26.0867 353.716 26V24.05C354.392 24.2753 355.155 24.388 356.004 24.388C357.218 24.388 358.214 24.1887 358.994 23.79C359.792 23.3913 360.424 22.854 360.892 22.178C361.36 21.4847 361.698 20.6873 361.906 19.786C362.114 18.8673 362.236 17.9053 362.27 16.9H362.114C361.733 17.4893 361.178 18.0007 360.45 18.434C359.74 18.85 358.821 19.058 357.694 19.058C356.1 19.058 354.808 18.5727 353.82 17.602C352.85 16.614 352.364 15.2273 352.364 13.442C352.364 12.142 352.607 11.024 353.092 10.088C353.595 9.152 354.288 8.43267 355.172 7.93C356.056 7.42733 357.096 7.176 358.292 7.176C359.471 7.176 360.537 7.47933 361.49 8.086C362.444 8.67533 363.198 9.57667 363.752 10.79C364.307 11.986 364.584 13.5113 364.584 15.366ZM358.292 9.1C357.218 9.1 356.334 9.45533 355.64 10.166C354.964 10.8767 354.626 11.96 354.626 13.416C354.626 14.612 354.912 15.5567 355.484 16.25C356.074 16.926 356.975 17.264 358.188 17.264C359.02 17.264 359.74 17.0993 360.346 16.77C360.953 16.4233 361.421 15.99 361.75 15.47C362.097 14.95 362.27 14.4127 362.27 13.858C362.27 13.1127 362.123 12.376 361.828 11.648C361.534 10.92 361.092 10.3133 360.502 9.828C359.913 9.34267 359.176 9.1 358.292 9.1Z" fill="white"/>
<rect x="291.91" y="2.66016" width="26.5938" height="26.5938" fill="#00BE85"/>
<rect x="263.27" y="2.66016" width="26.5938" height="26.5938" fill="#00BE85"/>
<rect x="234.629" y="2.66016" width="26.5938" height="26.5938" fill="#00BE85"/>
<rect x="205.989" y="2.66016" width="26.5938" height="26.5938" fill="#00BE85"/>
<rect x="177.349" y="2.66016" width="26.5938" height="26.5938" fill="#00BE85"/>
<path fill-rule="evenodd" clip-rule="evenodd" d="M307.343 14.0807L305.428 7.77344L303.512 14.0807H297.021L302.273 18.1638L300.324 24.5863L305.428 20.6173L310.532 24.5863L308.583 18.1638L313.834 14.0807H307.343Z" fill="white"/>
<path d="M308.574 18.1953L309.059 19.6485L305.426 20.6173L308.574 18.1953Z" fill="#00BE85"/>
<path fill-rule="evenodd" clip-rule="evenodd" d="M278.703 14.0807L276.787 7.77344L274.872 14.0807H268.381L273.632 18.1638L271.683 24.5863L276.787 20.6173L281.891 24.5863L279.942 18.1638L285.194 14.0807H278.703Z" fill="white"/>
<path d="M279.934 18.1953L280.418 19.6485L276.785 20.6173L279.934 18.1953Z" fill="#00BE85"/>
<path fill-rule="evenodd" clip-rule="evenodd" d="M250.062 14.0807L248.147 7.77344L246.231 14.0807H239.74L244.992 18.1638L243.043 24.5863L248.147 20.6173L253.251 24.5863L251.302 18.1638L256.553 14.0807H250.062Z" fill="white"/>
<path d="M251.293 18.1953L251.778 19.6485L248.145 20.6173L251.293 18.1953Z" fill="#00BE85"/>
<path fill-rule="evenodd" clip-rule="evenodd" d="M221.423 14.0807L219.507 7.77344L217.592 14.0807H211.101L216.352 18.1638L214.403 24.5863L219.507 20.6173L224.611 24.5863L222.662 18.1638L227.913 14.0807H221.423Z" fill="white"/>
<path d="M222.654 18.1953L223.138 19.6485L219.505 20.6173L222.654 18.1953Z" fill="#00BE85"/>
<path fill-rule="evenodd" clip-rule="evenodd" d="M192.782 14.0807L190.866 7.77344L188.951 14.0807H182.46L187.712 18.1638L185.762 24.5863L190.866 20.6173L195.97 24.5863L194.021 18.1638L199.273 14.0807H192.782Z" fill="white"/>
<path fill-rule="evenodd" clip-rule="evenodd" d="M17.2349 12.886L14.1293 2.66016L11.0238 12.886H0.5L9.01443 19.506L5.85438 29.9188L14.1293 23.4838L22.4043 29.9188L19.2442 19.506L27.7587 12.886H17.2349Z" fill="#00BE85"/>
<path d="M194.013 18.1992L194.497 19.6524L190.864 20.6212L194.013 18.1992Z" fill="#00BE85"/>
<path d="M19.2706 19.4805L19.9797 21.8739L14.1289 23.4695L19.2706 19.4805Z" fill="#1B4523"/>
</svg>
